<?xml version="1.0" encoding="utf-8"?>
<!-- Generator: Adobe Illustrator 16.0.0, SVG Export Plug-In . SVG Version: 6.00 Build 0)  -->
<!DOCTYPE svg PUBLIC "-//W3C//DTD SVG 1.1//EN" "http://www.w3.org/Graphics/SVG/1.1/DTD/svg11.dtd">
<svg version="1.1" id="Layer_1" xmlns="http://www.w3.org/2000/svg" xmlns:xlink="http://www.w3.org/1999/xlink" x="0px" y="0px"
	 width="125.896px" height="144.869px" viewBox="0 0 125.896 144.869" enable-background="new 0 0 125.896 144.869"
	 xml:space="preserve">
<linearGradient id="path1_1_" gradientUnits="userSpaceOnUse" x1="205.9998" y1="-222.5664" x2="331.8914" y2="-222.5664" gradientTransform="matrix(1 0 0 -1 -206 -150.1309)">
	<stop  offset="0.2514" style="stop-color:#00053F"/>
	<stop  offset="0.3136" style="stop-color:#0B0547"/>
	<stop  offset="0.4238" style="stop-color:#29045B"/>
	<stop  offset="0.5689" style="stop-color:#5A037D"/>
	<stop  offset="0.7417" style="stop-color:#9C01AB"/>
	<stop  offset="0.8111" style="stop-color:#B900BF"/>
</linearGradient>
<path id="path1" fill="url(#path1_1_)" d="M26.6,0.425c-0.872,0.386-1.421,0.86-1.81,1.561c-0.248,0.451-0.283,1.935-0.357,15.237
	L24.35,31.959l-1.591,1.289C17.185,37.771,11.277,44.94,7.8,51.402C6.54,53.747,5.6,55.6,5.6,55.744
	c0,0.082-0.234,0.658-0.521,1.279s-0.701,1.617-0.922,2.213c-0.22,0.596-0.466,1.233-0.546,1.416
	C3.531,60.836,3.3,61.548,3.1,62.236c-0.202,0.687-0.464,1.55-0.583,1.916c-0.48,1.479-1.482,5.983-1.742,7.834
	c-0.104,0.733-0.258,1.82-0.344,2.417c-1.016,7.056-0.188,17.634,1.933,24.666c0.234,0.779,0.578,1.94,0.764,2.584
	c0.188,0.642,0.402,1.315,0.479,1.5s0.302,0.746,0.499,1.25c0.389,0.994,1.234,2.947,2.022,4.666
	c0.419,0.914,1.663,3.252,3.016,5.664c0.178,0.316,0.471,0.768,0.649,1c0.182,0.23,0.671,0.945,1.093,1.588
	c4.08,6.24,9.982,12.188,16.463,16.594c4.861,3.309,8.35,5.113,14.083,7.291c0.837,0.318,2.634,0.896,4.987,1.602
	c0.498,0.148,1.548,0.391,2.334,0.533c0.785,0.143,1.615,0.338,1.846,0.432c0.387,0.16,1.04,0.27,3.833,0.637
	c4.006,0.523,12.92,0.627,15.75,0.182c0.55-0.086,1.638-0.242,2.417-0.348c0.777-0.104,1.865-0.295,2.417-0.424
	c0.55-0.127,1.712-0.385,2.583-0.574c3.162-0.688,7.588-2.184,11-3.709c1.418-0.637,4.749-2.334,5.188-2.646
	c0.244-0.174,0.48-0.314,0.525-0.314c0.188,0,2.348-1.35,4.119-2.576c8.426-5.828,15.383-13.637,20.115-22.573
	c0.408-0.771,0.811-1.521,0.893-1.668c0.271-0.481,1.186-2.582,1.529-3.517c0.186-0.506,0.402-1.002,0.482-1.104
	c0.082-0.104,0.27-0.591,0.414-1.082c0.146-0.494,0.4-1.197,0.564-1.563c0.164-0.367,0.348-0.854,0.406-1.084
	c0.492-1.87,0.76-2.834,0.916-3.333c0.459-1.461,1.214-5.22,1.502-7.5c0.928-7.265,0.854-11.754-0.311-19.583
	c-0.189-1.288-0.945-4.596-1.35-5.917c-0.07-0.229-0.296-1.017-0.503-1.75c-0.204-0.733-0.438-1.483-0.521-1.667
	c-0.08-0.183-0.328-0.858-0.549-1.5c-0.222-0.641-0.678-1.804-1.015-2.583c-0.337-0.779-0.653-1.558-0.707-1.732
	c-0.052-0.173-0.416-0.923-0.813-1.667c-0.396-0.743-0.906-1.726-1.133-2.184c-1.213-2.454-4.41-7.322-6.248-9.517
	c-0.238-0.284-0.695-0.843-1.018-1.241c-2.064-2.563-5.771-6.198-8.807-8.633l-0.693-0.557V17.666
	c0-17.036,0.087-16.396-2.328-17.267c-2.354-0.847-1.896-1.234-18.111,15.314l-4.308,4.395l-1.084-0.099
	c-0.598-0.055-1.495-0.181-2-0.281c-6.191-1.227-15.82-1.226-21.834,0.003c-0.505,0.103-1.331,0.229-1.84,0.28l-0.922,0.093
	l-9.494-9.623C28.606-0.74,28.834-0.565,26.6,0.425 M67.35,22.406c1.986,0.14,3.33,0.293,5.466,0.623l0.8,0.123l-3.604,3.667
	c-1.98,2.017-3.784,3.879-4.008,4.138L65.6,31.428V50.05c0,14.644,0.045,18.679,0.208,18.889c0.113,0.147,0.782,0.503,1.485,0.792
	c3.488,1.432,5.938,4.25,6.896,7.928c0.288,1.104,0.323,4.376,0.055,5.23c-1.336,4.281-3.703,6.863-7.646,8.344
	c-0.32,0.121-0.679,0.334-0.792,0.477c-0.164,0.202-0.208,5.441-0.208,24.952v24.694l-0.773,0.106
	c-0.99,0.136-3.198,0.138-3.873,0.002l-0.521-0.104v-24.696c0-19.506-0.043-24.754-0.208-24.963
	c-0.115-0.146-0.69-0.438-1.279-0.646c-7.748-2.771-9.94-12.789-4.096-18.727c0.731-0.745,1.558-1.462,1.833-1.593
	c0.273-0.131,0.688-0.365,0.92-0.52c0.229-0.155,0.826-0.414,1.319-0.576c1.681-0.549,1.511,1.626,1.511-19.413
	c0-15.748-0.035-18.575-0.239-18.958c-0.131-0.247-1.931-2.137-4-4.199c-4.206-4.192-4.013-3.936-3.052-4.055
	c0.389-0.048,1.308-0.172,2.041-0.276C58.405,22.282,63.582,22.141,67.35,22.406 M24.177,60.444
	c-0.114,23.284-0.11,23.725,0.208,24.553c0.423,1.092,1.449,2.461,2.56,3.404c0.482,0.412,1.036,0.902,1.226,1.092
	c0.191,0.188,0.834,0.688,1.432,1.107c0.596,0.422,1.308,0.988,1.583,1.258c0.273,0.271,0.838,0.746,1.25,1.063
	c1.915,1.457,4.681,4.264,6.557,6.646c1.37,1.744,1.976,2.693,3.744,5.875c0.248,0.445,0.963,2.091,1.686,3.875
	c0.075,0.186,0.216,0.521,0.313,0.75c0.098,0.229,0.269,0.719,0.379,1.084c0.111,0.367,0.258,0.816,0.328,1
	c0.336,0.888,0.827,2.724,0.827,3.099c0,0.229,0.063,0.49,0.14,0.578c0.076,0.086,0.235,0.608,0.352,1.157
	c0.117,0.552,0.275,1.228,0.353,1.5c0.287,1.033,0.738,3.543,1.062,5.916c0.134,0.964,0.361,2.576,0.511,3.584
	c0.479,3.257,0.804,5.636,1.064,7.791c0.168,1.388,0.634,2.716,1.351,3.843l0.496,0.782h-0.569c-0.314,0-0.616-0.073-0.673-0.166
	c-0.059-0.092-0.277-0.166-0.491-0.166c-0.213,0-0.79-0.118-1.282-0.264c-0.491-0.146-1.194-0.345-1.56-0.445
	c-0.367-0.101-0.738-0.243-0.825-0.319s-0.313-0.14-0.5-0.14c-0.368-0.002-3.154-0.896-3.631-1.168
	c-0.16-0.09-0.369-0.164-0.468-0.164c-0.098,0-0.486-0.149-0.866-0.334c-0.379-0.185-0.779-0.334-0.89-0.334
	c-0.107,0-0.292-0.11-0.404-0.25c-0.114-0.137-0.313-0.25-0.443-0.25c-0.435,0-3.655-1.642-6.744-3.437
	c-6.351-3.694-13.431-10.289-17.856-16.633c-0.83-1.188-1.955-2.933-1.955-3.026c0-0.052-0.179-0.332-0.395-0.623
	c-0.78-1.053-3.229-5.846-4.019-7.865c-0.25-0.643-0.56-1.393-0.685-1.666c-0.373-0.818-1.218-3.404-1.579-4.834
	c-0.186-0.73-0.423-1.596-0.525-1.916c-0.104-0.32-0.243-0.848-0.312-1.166c-0.065-0.32-0.21-0.995-0.317-1.5
	c-0.243-1.133-0.472-2.545-0.661-4.114c-0.081-0.659-0.189-1.334-0.24-1.5c-0.496-1.597-0.35-10.415,0.236-14.304
	c0.423-2.802,0.837-4.903,1.23-6.25c0.121-0.413,0.313-1.163,0.43-1.667c0.222-0.981,0.751-2.703,0.996-3.25
	c0.083-0.183,0.2-0.52,0.264-0.75c0.062-0.229,0.225-0.679,0.364-1c0.563-1.308,0.679-1.601,0.793-2
	c0.461-1.617,4.445-8.894,6.068-11.083c0.34-0.458,0.921-1.246,1.291-1.75s0.831-1.104,1.025-1.333
	c0.192-0.229,0.776-0.942,1.298-1.584c1.094-1.347,6.17-6.416,6.425-6.416C24.242,36.736,24.258,44.244,24.177,60.444
	 M106.308,41.122c0.949,1.025,2.25,2.501,2.885,3.28c0.637,0.779,1.213,1.442,1.281,1.473c0.066,0.03,0.125,0.127,0.125,0.215
	c0,0.088,0.455,0.771,1.01,1.519c0.555,0.747,1.434,2.075,1.953,2.951c0.519,0.876,1.08,1.817,1.244,2.092
	c0.311,0.519,2.883,5.747,3.115,6.334c0.602,1.509,0.846,2.21,0.846,2.428c0,0.14,0.063,0.326,0.146,0.413
	c0.213,0.232,1.65,4.837,1.844,5.909c0.092,0.504,0.277,1.404,0.421,2c1.625,6.873,1.597,17.606-0.065,24.583
	c-0.176,0.731-0.367,1.634-0.426,2c-0.061,0.367-0.178,0.894-0.266,1.168c-0.582,1.853-1.357,4.219-1.477,4.5
	c-0.346,0.83-0.67,1.701-0.773,2.082c-0.063,0.229-0.432,1.093-0.818,1.918c-0.39,0.824-0.914,1.949-1.168,2.5
	c-1.717,3.705-6.105,10.141-9.102,13.334c-0.43,0.457-0.992,1.088-1.252,1.4c-0.574,0.689-5.01,4.68-6.225,5.6
	c-0.486,0.367-1.092,0.836-1.35,1.043c-1.922,1.563-7.679,4.979-10.323,6.125c-0.6,0.26-1.617,0.721-2.27,1.025
	c-0.648,0.307-1.271,0.557-1.377,0.557c-0.105,0-0.324,0.072-0.48,0.16c-0.479,0.264-3.307,1.172-3.652,1.172
	c-0.176,0-0.393,0.068-0.479,0.146c-0.088,0.082-0.676,0.275-1.305,0.432c-0.631,0.156-1.305,0.344-1.5,0.42
	c-0.625,0.242-2.27,0.561-2.373,0.457c-0.055-0.057,0.088-0.35,0.314-0.652c0.885-1.18,1.221-2.305,1.637-5.469
	c0.695-5.311,0.792-5.998,1.076-7.666c0.146-0.871,0.332-2.07,0.406-2.668c0.354-2.797,0.98-5.965,1.504-7.594
	c0.09-0.281,0.164-0.672,0.164-0.865s0.064-0.396,0.146-0.445s0.188-0.336,0.23-0.635c0.209-1.381,1.266-4.487,2.27-6.67
	c0.285-0.618,0.742-1.608,1.014-2.202c0.273-0.593,0.932-1.775,1.459-2.625c0.529-0.853,1.037-1.671,1.131-1.822
	c1.112-1.841,4.76-5.703,7.583-8.039c0.869-0.721,1.771-1.469,2.002-1.664c0.229-0.194,0.719-0.575,1.084-0.847
	c0.793-0.586,2.396-1.948,3.252-2.758c0.641-0.608,1.418-1.729,1.795-2.584c0.178-0.406,0.217-4.969,0.205-24.479l-0.016-23.978
	l1.41,1.282C103.945,38.682,105.359,40.098,106.308,41.122 M41.879,106.36c-0.04,0.066-0.101,5.418-0.134,11.89l-0.062,11.763
	l0.498,0.653c1.198,1.576,5.483,5.588,5.916,5.535c0.524-0.062,0.488-1.845-0.149-7.3c-0.152-1.297-0.252-2.03-0.671-4.916
	c-0.153-1.049-0.536-3.088-0.846-4.5c-0.103-0.459-0.246-1.133-0.322-1.5c-0.404-1.938-0.741-3.387-1.009-4.334
	c-0.104-0.364-0.25-0.93-0.324-1.25c-0.169-0.727-1.771-5.28-2.037-5.791C42.552,106.25,42.033,106.101,41.879,106.36
	 M83.121,107.026c-0.115,0.345-0.291,0.813-0.389,1.041c-0.1,0.229-0.24,0.566-0.318,0.75c-0.148,0.359-0.889,2.518-1.139,3.334
	c-0.084,0.273-0.316,1.214-0.516,2.084c-0.198,0.871-0.426,1.734-0.496,1.916c-0.076,0.187-0.182,0.599-0.23,0.918
	c-0.053,0.32-0.289,1.482-0.525,2.582c-0.236,1.103-0.494,2.414-0.57,2.918c-0.078,0.505-0.229,1.441-0.332,2.082
	c-0.443,2.693-1.24,11.168-1.076,11.435c0.41,0.664,6.387-4.892,6.631-6.162c0.141-0.731,0.141-13.188-0.002-18.993
	c-0.107-4.479-0.113-4.527-0.467-4.527C83.427,106.401,83.277,106.565,83.121,107.026"/>
</svg>
